<svg version="1.1" xmlns="http://www.w3.org/2000/svg" style="display: block;" viewBox="437 437 1173 1173" width="1024" height="1024" preserveAspectRatio="xMidYMid meet">
<path transform="translate(0,0)" fill="rgb(225,117,65)" d="M 1003.64 437.979 C 1327.46 426.792 1598.99 680.324 1610.01 1004.15 C 1621.02 1327.98 1367.34 1599.37 1043.51 1610.21 C 719.924 1621.04 448.782 1367.59 437.777 1044.02 C 426.772 720.437 680.07 449.158 1003.64 437.979 z"/>
<path transform="translate(0,0)" fill="rgb(255,255,255)" d="M 1018.32 494.079 C 1310.84 490.971 1550.56 725.448 1553.92 1017.96 C 1557.29 1310.48 1323.02 1550.41 1030.51 1554.03 C 737.632 1557.65 497.344 1323.03 493.976 1030.15 C 490.609 737.275 725.438 497.191 1018.32 494.079 z"/>
<path transform="translate(0,0)" fill="rgb(225,117,65)" d="M 1023.48 957.145 C 1093.59 885.947 1164.12 815.152 1235.05 744.765 C 1267.25 712.482 1303.33 677.789 1333.9 644.54 C 1354.18 671.627 1377.94 708.431 1397.41 736.873 L 1506.03 894.547 C 1472.35 894.276 1438.67 894.387 1405 894.88 C 1405.27 1035.01 1403.82 1176.69 1405.35 1316.65 L 1249.17 1400.29 L 1249.16 1127.67 L 1249.09 940.358 C 1224.72 961.067 1195.59 990.354 1171.66 1012.5 C 1121.82 1057.73 1072.64 1103.68 1024.16 1150.35 C 998.651 1125.12 969.028 1098.61 942.561 1074.03 L 797.813 940.396 C 798.473 987.376 797.971 1035.59 797.979 1082.69 L 798.282 1400.23 C 787.495 1395.57 761.915 1380.93 750.509 1374.82 L 642.102 1316.26 L 642.05 1054.84 C 642.052 1001.97 641.501 947.217 642.713 894.423 C 610.497 893.607 574.402 894.453 541.862 894.548 C 548.301 884.763 555.146 874.783 561.879 865.185 C 612.963 792.353 661.817 717.44 713.17 644.855 C 723.18 653.949 737.737 669.893 747.618 679.89 L 817.523 750.118 L 1023.48 957.145 z"/>
<path transform="translate(0,0)" fill="rgb(225,117,65)" d="M 884.171 1068.12 C 893.808 1076.78 903.275 1085.62 912.566 1094.64 C 900.994 1102.78 888.864 1110.14 876.861 1117.63 L 876.792 1261.4 L 1023.71 1350.06 C 1070.29 1320.2 1123.28 1290.19 1171.04 1261.15 C 1170.25 1245.43 1170.8 1225.16 1170.8 1209.16 L 1170.98 1117.11 C 1161.31 1112.04 1144.3 1100.64 1134.45 1094.49 C 1144.04 1085.94 1153.65 1076.92 1163.14 1068.22 C 1175.76 1075.08 1191.89 1085.55 1204.47 1093.19 C 1205.38 1093.68 1208.72 1095.62 1208.72 1096.67 C 1209.12 1157.72 1208.91 1221.91 1208.94 1282.74 C 1188.97 1294.19 1167.89 1307.55 1147.97 1319.5 C 1106.44 1344.23 1065.2 1369.41 1024.23 1395.04 C 1002.81 1381.04 977.655 1366.56 955.64 1353.36 C 916.444 1330.05 877.391 1306.5 838.483 1282.71 C 837.652 1263.75 838.296 1240.38 838.334 1221.12 L 838.371 1096.22 L 884.171 1068.12 z"/>
<path transform="translate(0,0)" fill="rgb(225,117,65)" d="M 1095.29 1163.4 C 1114.97 1160.74 1133.1 1174.45 1135.91 1194.1 C 1138.72 1213.75 1125.15 1231.99 1105.53 1234.95 C 1085.68 1237.94 1067.2 1224.2 1064.36 1204.33 C 1061.52 1184.46 1075.41 1166.08 1095.29 1163.4 z"/>
<path transform="translate(0,0)" fill="rgb(225,117,65)" d="M 942.47 1163.35 C 962.12 1160.71 980.212 1174.44 982.965 1194.07 C 985.718 1213.71 972.099 1231.88 952.481 1234.75 C 932.7 1237.64 914.342 1223.88 911.566 1204.08 C 908.79 1184.29 922.656 1166.01 942.47 1163.35 z"/>
<path transform="translate(0,0)" fill="rgb(225,117,65)" d="M 986.783 1258.75 L 1060.92 1258.65 L 1060.87 1294.87 C 1036.22 1294.7 1011.56 1294.7 986.913 1294.85 L 986.783 1258.75 z"/>
</svg>
